<svg version="1.1" xmlns="http://www.w3.org/2000/svg" xmlns:xlink="http://www.w3.org/1999/xlink" width="78.09329" height="102.88025" viewBox="0,0,78.09329,102.88025"><g transform="translate(-224.40671,-115.5)"><g data-paper-data="{&quot;isPaintingLayer&quot;:true}" fill-rule="nonzero" stroke-linecap="butt" stroke-linejoin="miter" stroke-miterlimit="10" stroke-dasharray="" stroke-dashoffset="0" style="mix-blend-mode: normal"><path d="M224.5,115.5h78v78.75h-78z" fill="none" stroke="none" stroke-width="1"/><path d="M240,131h48v48h-48z" fill="#7f7f7f" stroke="none" stroke-width="1"/><path d="M288.01,145.14l-0.01,5.65c0,2.2 -1.79,3.98 -4,3.98l-6.46,0.68l-15.13,-0.9l-11.09,0.21h-7.32c-2.2,0 -4,-1.78 -4,-3.98l-0.15,-4.27l0.15,-11.53c0,-2.2 1.79,-3.98 4,-3.98l9.47,0.8l18.21,-0.8l9.21,0.38l3.12,-0.38c2.2,0 4,1.78 4,3.98z" fill="#c4482b" stroke="#000000" stroke-width="1.5"/><path d="M283.06,143.37l-30.64,6.37h-6.1c-1.84,0 -3.34,-1.18 -3.34,-2.64l-0.13,-2.83l0.13,-7.63c0,-1.46 1.49,-2.64 3.34,-2.64l7.91,0.53l15.21,-0.53l7.69,0.25l2.6,-0.25c1.84,0 3.34,1.18 3.34,2.64v6.73z" fill="#e3674b" stroke="none" stroke-width="1"/><path d="M239.02,155.27l4.54,-0.39l7.31,0.39h9.15c2.21,0 3.99,1.78 3.99,3.98l-0.77,3.99l0.77,11.8c0,2.2 -1.79,3.98 -3.99,3.98l-8.13,0.37l-12.89,-0.37" fill="#c4482b" stroke="#000000" stroke-width="1.5"/><path d="M288.99,179.02l-8.19,-0.02l-12.82,0.02c-2.21,0 -3.99,-1.79 -3.99,-4l-0.49,-10.13l0.49,-5.74c0,-2.21 1.79,-4 3.99,-4l7.33,0.64l13.69,-0.64" fill="#c4482b" stroke="#000000" stroke-width="1.5"/><path d="M258.96,161.2v6.72l-19.96,4.15v-13.29l6.32,-0.22l7.69,0.25l2.6,-0.25c1.84,0 3.35,1.17 3.35,2.64z" fill="#e3674b" stroke="none" stroke-width="1"/><path d="M289,171.68l-12.54,2.61h-6.1c-1.84,0 -3.34,-1.18 -3.34,-2.64l-0.13,-2.83l0.13,-7.63c0,-1.46 1.49,-2.64 3.34,-2.64l7.91,0.53l10.73,-0.37z" fill="#e3674b" stroke="none" stroke-width="1"/><path d="M224.40672,165.06623h78v53.31402h-78z" fill="none" stroke="none" stroke-width="1"/><path d="M239.90672,175.55978h48v32.49616h-48z" fill="#7f7f7f" stroke="none" stroke-width="1"/><path d="M287.91672,185.13261l-0.01,3.82507c0,1.48941 -1.79,2.69447 -4,2.69447l-6.46,0.46036l-15.13,-0.6093l-11.09,0.14217h-7.32c-2.2,0 -4,-1.20507 -4,-2.69447l-0.15,-2.8908l0.15,-7.80585c0,-1.48941 1.79,-2.69447 4,-2.69447l9.47,0.5416l18.21,-0.5416l9.21,0.25726l3.12,-0.25726c2.2,0 4,1.20507 4,2.69447z" fill="#c4482b" stroke="#000000" stroke-width="1.5"/><path d="M282.96672,183.93432l-30.64,4.31251h-6.1c-1.84,0 -3.34,-0.79886 -3.34,-1.78729l-0.13,-1.91592l0.13,-5.16553c0,-0.98842 1.49,-1.78729 3.34,-1.78729l7.91,0.35881l15.21,-0.35881l7.69,0.16925l2.6,-0.16925c1.84,0 3.34,0.79887 3.34,1.78729v4.55623z" fill="#e3674b" stroke="none" stroke-width="1"/><path d="M238.92672,191.99066l4.54,-0.26403l7.31,0.26403h9.15c2.21,0 3.99,1.20506 3.99,2.69447l-0.77,2.70124l0.77,7.98864c0,1.48941 -1.79,2.69447 -3.99,2.69447l-8.13,0.25049l-12.89,-0.25049" fill="#c4482b" stroke="#000000" stroke-width="1.5"/><path d="M288.89671,208.06949l-8.19,-0.01354l-12.82,0.01354c-2.21,0 -3.99,-1.21184 -3.99,-2.70801l-0.49,-6.85805l0.49,-3.886c0,-1.49618 1.79,-2.70801 3.99,-2.70801l7.33,0.43328l13.69,-0.43328" fill="#c4482b" stroke="#000000" stroke-width="1.5"/><path d="M258.86672,196.00528v4.54946l-19.96,2.80957v-8.99738l6.32,-0.14894l7.69,0.16925l2.6,-0.16925c1.84,0 3.35,0.79209 3.35,1.78729z" fill="#e3674b" stroke="none" stroke-width="1"/><path d="M288.90672,203.10028l-12.54,1.76698h-6.1c-1.84,0 -3.34,-0.79887 -3.34,-1.78729l-0.13,-1.91592l0.13,-5.16554c0,-0.98842 1.49,-1.78729 3.34,-1.78729l7.91,0.35881l10.73,-0.25049z" fill="#e3674b" stroke="none" stroke-width="1"/></g></g></svg>